<svg width="800" height="800" viewBox="0 0 800 800" fill="none" xmlns="http://www.w3.org/2000/svg">
<path d="M421.106 720.877H563.65C541.83 709.253 534.081 678.46 532.857 648.891C518.787 515.32 444.354 411.318 426.204 384.4C510.834 333.622 548.152 255.927 548.152 184.145C548.152 64.6444 442.926 8.15698 351.772 8.15698H111.547C120.52 21.0043 127.046 26.1024 127.046 55.6716V664.389C127.046 693.959 114.198 708.03 105.226 720.877H214.326C205.353 708.03 192.506 693.959 192.506 664.389V440.887C266.123 439.663 327.504 427.632 376.854 408.055C451.899 488.606 460.872 605.455 462.299 637.471C463.319 669.488 446.801 697.833 421.106 720.877ZM192.506 385.827V50.5735H333.826C431.506 50.5735 463.523 112.159 462.299 177.619C455.774 358.705 275.911 385.827 192.506 385.827Z" fill="white"/>
<path d="M320.775 511.649C354.627 511.037 387.051 508.386 415.804 503.492C411.93 490.441 397.859 462.299 390.721 450.471C364.415 454.958 340.148 456.385 320.775 456.385V442.314C311.802 445.577 272.037 451.287 255.315 453.326V735.152C255.315 764.721 242.468 778.792 233.495 791.639H342.595C333.622 778.792 320.775 764.721 320.775 735.152V511.649Z" fill="white"/>
<path d="M436.401 119.296H320.775V349.121C306.092 354.219 276.523 363.803 255.315 365.842V124.395C255.315 94.8253 248.993 89.7272 239.816 76.8799H399.694C412.745 84.6291 430.079 103.186 436.401 119.296Z" fill="white"/>
<path d="M565.282 160.285C584.858 183.737 592.404 215.141 591.588 247.565C588.121 345.654 533.673 398.47 471.476 426.408C480.652 440.275 492.072 466.378 499.21 480.652C501.045 480.041 506.551 478.001 508.182 477.39C583.227 557.94 590.364 675.401 591.588 707.418C592.812 739.434 576.09 767.78 550.599 790.823H693.143C671.323 779.199 663.574 748.407 662.35 718.837C648.279 585.266 573.846 481.264 555.697 454.346C640.326 403.569 677.645 325.873 677.645 254.091C677.645 159.877 610.145 104.206 537.752 85.2407C543.666 94.6213 559.572 126.23 565.282 160.285Z" fill="white"/>
</svg>
